<svg width="1080" height="1080" viewBox="0 0 1080 1080" fill="none" xmlns="http://www.w3.org/2000/svg">
<path d="M542.547 672.324H181V144H542.547C666.685 144 767.2 244.633 767.2 368.653V447.553C767.2 571.691 666.685 672.324 542.547 672.324Z" fill="#ACD905"/>
<path d="M635.739 936.546H181V672.324C181 526.453 299.232 408.221 445.103 408.221H635.739C781.61 408.221 899.842 526.453 899.842 672.324C899.842 818.195 781.61 936.546 635.739 936.546Z" fill="#AEAFAA"/>
<path d="M767.2 443.301V447.671C767.2 571.809 666.685 672.324 542.429 672.324H181C181 599.448 210.647 533.422 258.365 485.586C306.201 437.75 372.227 408.221 445.221 408.221H635.739C683.694 408.221 728.577 420.978 767.2 443.301Z" fill="#5D6E3C"/>
</svg>
