<?xml version="1.0" encoding="utf-8"?>
<!-- Generator: Adobe Illustrator 23.0.1, SVG Export Plug-In . SVG Version: 6.00 Build 0)  -->
<svg version="1.1" id="Layer_1" xmlns="http://www.w3.org/2000/svg" xmlns:xlink="http://www.w3.org/1999/xlink" x="0px" y="0px"
	 viewBox="0 0 32 32" style="enable-background:new 0 0 32 32;" xml:space="preserve">
<style type="text/css">
	.st0{fill:#2844AD;}
	.st1{fill:#5493F7;}
	.st2{fill:#3C3B6E;}
	.st3{fill:#B12234;}
	.st4{fill:#FEFEFE;}
	.st5{fill:#FDFDFD;}
	.st6{fill:#FDFDFE;}
</style>
<path class="st0" d="M17.1,19.5c0,0-3.4,1.8-3.2,4.6c0.2,2.8,3.9,7.1,6.2,6.2c2.3-0.8,8.6-4.5,9.3-8.1s-5.7-5.4-5.7-5.4L17.1,19.5z
	 M25.9,4.2C21.6,0.7,15.8,0,10.8,2.3L7.1,7.5C7.5,8.7,8.4,9.7,9.6,10c2.1,0.7,11.3-2.8,11.3-2.8L25.9,4.2z"/>
<path class="st1" d="M1.8,9.3c0,0,3.1-5.7,7.2-7s3.5,2.8,0,4.5S3.3,9.4,1.8,9.3z M1.3,11.1c0,0-4.7,13.3,8.3,19.4c0,0,1-5.3-0.8-8.7
	c-1.4-2.7-3-5.2-4.9-7.6C2.9,13.2,2,12.2,1.3,11.1z M29.7,23.9c0,0-3.4,6.5-8.3,6.5c-0.5-0.2-0.8-0.7-0.6-1.2c0,0,0-0.1,0-0.1
	C21.1,28.2,24.2,24.9,29.7,23.9z M26,4.2c1.9,1.4,3.4,3.4,4.3,5.6c1.5,3.6,1.7,7.6,0.6,11.4c-0.8,2.2-2.1,1.6-4.9,1
	c-2.8-0.6-13.3-3.5-16-7.1s-0.6-6.5,2.9-8.4S23.7,2.8,26,4.2z"/>
<path class="st2" d="M11.4,26.7l-0.2-5.8l7.9-0.5v5.7c0,0.2,0,0,0,0L11.4,26.7C11.4,26.6,11.4,26.7,11.4,26.7z"/>
<path class="st3" d="M31.3,29.7v0.8c0,0.3,0,0,0,0l-19.7,1.2v-0.8h0.1L31.3,29.7C31.3,29.7,31.3,29.7,31.3,29.7z"/>
<path class="st4" d="M31.3,29.7L31.3,29.7l-19.7,1.2V30h0.1l19.5-1.2c0,0,0.1,0,0.1,0L31.3,29.7z M31.2,27.2V28h-0.1l-19.5,1.2
	c0,0-0.1,0-0.1,0v-0.8h0.1L31.2,27.2L31.2,27.2z"/>
<path class="st3" d="M31.2,27.2l-19.7,1.2v-0.8L31,26.4h0.1L31.2,27.2z"/>
<path class="st4" d="M31.2,26.3L31.2,26.3l-19.7,1.2v-0.8l7.8-0.5h0.2l11.6-0.7h0.1V26.3z"/>
<path class="st3" d="M11.5,29.2L31.1,28v0.8L11.5,30L11.5,29.2z M19.1,21.2v-0.8l11.8-0.7v0.8h-0.1l-11.5,0.8
	C19.2,21.2,19.2,21.2,19.1,21.2z"/>
<path class="st4" d="M19.1,21.2l1.4-0.1l10.3-0.6v0.8L19.2,22c0,0-0.1,0-0.1,0L19.1,21.2z M19.2,25.4v-0.8h0.1L31,23.8h0.1v0.8
	l-11.6,0.7C19.5,25.3,19.2,25.4,19.2,25.4z"/>
<path class="st3" d="M31.1,23.8l-11.8,0.7v-0.8h0.1L31,23h0.1L31.1,23.8z"/>
<path class="st4" d="M31.1,23l-2.4,0.1l-9.4,0.6v-0.8l11.6-0.7H31L31.1,23z"/>
<path class="st3" d="M19.2,25.4L31,24.6v0.8l-11.7,0.7L19.2,25.4z M31,22.1L31,22.1l-11.8,0.7V22l3.6-0.2l8.1-0.5L31,22.1z"/>
<path class="st5" d="M17.1,24.8v-0.3c-0.1,0-0.1-0.1-0.1-0.1h0.2v-0.2v0.1c0,0,0,0.1,0.1,0h0.1l-0.1,0.1c0,0.1,0,0.1,0,0.2l-0.2-0.1
	V24.8z M13,24.7h0.2c0-0.1,0-0.1,0-0.2v0.2c0,0.1,0,0,0,0h0.2c0,0,0,0.1-0.1,0.1c-0.1,0,0,0,0,0.1c0,0,0,0.1,0,0.1L13.2,25
	c0,0-0.1,0.1-0.1,0.1c0-0.1,0-0.1,0-0.2v-0.1l-0.1-0.1L13,24.7z M15.4,23.2l-0.1-0.1l-0.1,0.1c0-0.1,0-0.1,0-0.2L15,22.9h0.2
	c0-0.1,0-0.1,0-0.2v0.1h0.2L15.3,23c0,0,0,0.1,0,0.1C15.3,23.1,15.4,23.1,15.4,23.2z M13,21.5v-0.3l-0.1-0.1H13c0,0,0.1,0,0.1-0.1
	c0,0,0-0.1,0-0.1c0,0.1,0,0.1,0,0.2h0.2c0,0-0.1,0.1-0.1,0.1v0.1c0,0.1,0,0.1,0,0.2L13,21.4L13,21.5z M17.4,20.9L17.3,21
	c0,0,0,0.1,0,0.1c0,0,0,0,0,0v0.1l-0.2-0.1L17,21.3v-0.2L16.8,21h0.2c0-0.1,0-0.1,0-0.2v0.1c0,0.1,0,0.1,0.1,0.1h0.1L17.4,20.9z
	 M12.3,23h0.2v-0.2c0,0.1,0,0.1,0,0.2h0.2c0,0-0.1,0.1-0.1,0.1v0.3l-0.1-0.1h-0.1l-0.1,0.1c0-0.1,0-0.1,0-0.2v-0.1H12L12.3,23z
	 M16.8,22.7l-0.1,0.1c0,0.1,0,0.1,0,0.2l-0.1-0.1h-0.1c0,0.1-0.1,0.1-0.1,0.1v-0.2c0,0,0,0,0,0c-0.1,0-0.1-0.1-0.1-0.1h0.2
	c0-0.1,0-0.1,0-0.2v0.1c0,0.1,0,0.1,0.1,0.1h0.1L16.8,22.7z"/>
<path class="st6" d="M18.6,24.1c0,0.1,0,0.1,0,0.2h0.2l-0.1,0.1v0.1c0,0.1,0,0.1,0,0.2l-0.1-0.1c0,0.1-0.1,0.1-0.1,0.1v-0.3
	c-0.1,0-0.1-0.1-0.1-0.1h0.2L18.6,24.1z M14.4,24.6h0.2c0-0.1,0-0.1,0-0.2v0.2h0.2l-0.1,0.1v0.1c0,0.1,0,0.1,0,0.2l-0.1-0.1L14.4,25
	v-0.2c0,0,0-0.1,0-0.1h-0.1L14.4,24.6z"/>
<path class="st5" d="M11.8,21c0,0.1,0,0.1,0,0.2H12l-0.1,0.1v0.1c0,0.1,0,0.1,0,0.2l-0.2-0.1l-0.1,0.1v-0.2l-0.2-0.1h0.3
	C11.7,21.2,11.8,21.1,11.8,21z M14.7,21.4l-0.1-0.1l-0.1,0.1c0-0.1,0-0.1,0-0.2l-0.1-0.1h0.1V21c0,0.1,0,0.1,0,0.2h0.2l-0.1,0.1v0.1
	C14.5,21.4,14.6,21.4,14.7,21.4z M15.8,20.8c0,0.1,0,0.1,0,0.2H16l-0.1,0.1v0.2l-0.1-0.1h-0.1l-0.1,0.1c0-0.1,0-0.1,0-0.2V21
	l-0.1-0.1h0.2L15.8,20.8z M18.6,21.2l-0.1-0.1l-0.2,0.1c0-0.1,0-0.1,0-0.2c-0.1,0-0.1-0.1-0.1-0.1h0.2c0-0.1,0-0.1,0-0.2
	c0,0.1,0,0.1,0,0.2c0.1,0,0.1,0,0.2,0L18.4,21c0,0.1,0,0.1,0,0.2H18.6z M15.8,24.9v-0.2l-0.2-0.1h0.2v-0.2v0.2c0,0,0,0,0,0H16
	l-0.1,0.1C15.8,24.8,15.8,24.9,15.8,24.9L15.8,24.9l-0.2,0L15.8,24.9z M12.3,24.8l-0.1,0.1c0,0.1,0,0.1,0,0.2L12,25h-0.1l-0.1,0.1
	c0-0.1,0-0.1,0-0.2v-0.1l-0.2-0.1h0.2c0-0.1,0-0.1,0-0.2v0.2H12L12.3,24.8z M17.6,23c0-0.1,0-0.1,0-0.2v-0.2h0.2v-0.2v0.2
	c0.1,0,0.1,0,0.2,0l-0.1,0.1c0,0.1,0,0.1,0,0.2l-0.1-0.1h-0.1L17.6,23z M13.9,22.7c0,0.1,0,0.1,0.2,0.1L14,22.9c0,0.1,0,0.1,0,0.2
	L13.8,23h-0.1l-0.1,0.1c0-0.1,0-0.1,0-0.2l-0.1-0.1h0.2L13.9,22.7z"/>
<path class="st4" d="M14.6,25.6c0,0.1,0,0.1,0,0.2h0.2l-0.1,0.1V26c0,0,0,0.1,0,0.1L14.6,26c0,0.1-0.1,0.1-0.1,0.1v-0.2
	c0-0.1,0,0,0,0l-0.2-0.1h0.1c0.1,0,0.1,0,0.1-0.1C14.5,25.7,14.6,25.6,14.6,25.6z"/>
<path class="st6" d="M11.7,26h0.2v-0.2c0,0.1,0,0.1,0,0.2h0.2l-0.1,0.1c0,0.1,0,0.1,0,0.2l-0.2-0.1l-0.1,0.1v-0.2L11.7,26z
	 M15.8,26.1v-0.2c0,0,0,0,0,0l-0.2-0.1h0.2l0.2-0.2c0,0.1,0,0.1,0,0.2c0.1,0,0.1,0,0.2,0L16,25.9c0,0.1,0,0.1,0,0.2l0-0.1h-0.1
	L15.8,26.1L15.8,26.1z M18.6,25.3v0.2c0,0.1,0,0,0,0h0.2l-0.1,0.1v0.3l-0.2-0.1l-0.1,0.1v-0.2l0-0.2h0.2
	C18.5,25.5,18.6,25.4,18.6,25.3z"/>
<path class="st4" d="M13.5,22.3c-0.1,0-0.1,0.1-0.1,0.1c0,0.1,0,0.1,0,0.2l-0.2-0.1L13,22.7c0-0.1,0-0.1,0-0.2l-0.2-0.1
	c0.1,0,0.1,0,0.2,0c0,0,0,0,0.1-0.1c0,0,0-0.1,0-0.1c0,0.1,0,0.1,0,0.2L13.5,22.3z M17.4,22.5l-0.2-0.1l-0.1,0.1v-0.2l-0.2-0.1H17
	c0.1,0,0.1,0,0.1-0.1v-0.1v0.2h0.2l-0.1,0.1L17.4,22.5z M12.8,24.5L12.8,24.5L12.8,24.5l-0.2,0v-0.2c0-0.1,0,0,0,0l-0.1-0.1h0.2
	c0-0.1,0-0.1,0-0.2v0.2h0.2l-0.2,0.1C12.6,24.4,12.7,24.4,12.8,24.5z M18.8,22l-0.1,0.1c0,0.1,0,0.1,0,0.2h-0.1l-0.1,0.1v-0.2
	l-0.2-0.1h0.2c0-0.1,0-0.1,0-0.2c0,0.1,0,0.1,0,0.2L18.8,22z M16.3,23.9h0.2v-0.2c0,0.1,0,0.1,0,0.2h0.2L16.5,24c0,0.1,0,0.1,0,0.2
	l-0.1-0.1h-0.1l-0.1,0.1V24L16.3,23.9z M14.2,22.3h0.2c0,0,0.1,0,0.1-0.1v-0.2v0.2c0,0.1,0,0,0,0h0.2l-0.1,0.1c0,0.1,0,0.1,0,0.2
	l-0.1-0.1c0,0.1-0.1,0.1-0.1,0.1L14.2,22.3C14.2,22.3,14.2,22.4,14.2,22.3L14.2,22.3z"/>
<path class="st6" d="M13,25.9h0.2c0,0,0.1,0,0.1-0.1c0-0.1,0-0.1,0-0.2c0,0.1,0,0.1,0,0.2h0.2l-0.1,0.1c0,0.1,0,0.1,0,0.2L13.2,26
	L13,26.2L13,25.9L13,25.9z M17.5,26l-0.1-0.1L17.2,26v-0.3L17,25.6h0.2c0-0.1,0-0.1,0-0.2v0.1c0,0.1,0,0.1,0.1,0.1h0.3l-0.1,0.1v0.1
	C17.5,25.9,17.5,26,17.5,26z"/>
<path class="st4" d="M13.6,24.1h0.2v-0.2V24c0,0.1,0,0,0,0H14l-0.1,0.1c0,0.1,0,0.1,0,0.2l-0.2-0.1c0,0-0.1,0.1-0.1,0.1L13.6,24.1
	L13.6,24.1z M14.9,23.9h0.2v-0.2v0.2h0.2L15.2,24v0.2L15,24.1h-0.1l-0.1,0.1V24c0-0.1,0,0,0,0L14.9,23.9z M18.1,24.2l-0.1-0.1h-0.1
	l-0.1,0.1c0-0.1,0-0.1,0-0.2l-0.1-0.1h0.2v-0.2v0.1c0,0,0,0.1,0.1,0.1h0.1l-0.1,0.1v0.1L18.1,24.2z M16.1,22.2L16,22.3v0.2l-0.1-0.1
	h-0.1l-0.1,0.1c0-0.1,0-0.1,0-0.2v-0.1l-0.1-0.1h0.2V22v0.2L16.1,22.2z M11.7,22.8c0-0.1,0-0.1,0-0.2l-0.2-0.1h0.1
	c0.1,0,0.1,0,0.1-0.1c0,0,0-0.1,0-0.1v0.2H12l-0.2,0.1c0,0.1,0,0.1,0,0.2l-0.1-0.1h-0.1C11.7,22.7,11.7,22.7,11.7,22.8z M15.6,25.2
	c0,0-0.1,0.1-0.2,0.1c0,0.1,0,0.1,0,0.2l-0.1-0.1h-0.1L15,25.5v-0.2c0-0.1,0,0,0,0l-0.1-0.1h0.2V25c0,0.1,0,0.1,0,0.2c0,0,0,0,0.1,0
	L15.6,25.2z M12.9,23.5h0.2v-0.2c0,0.1,0,0.1,0,0.2h0.2l-0.1,0.1c0,0.1,0,0.1,0,0.2L13,23.8h-0.1l0.1,0.2v-0.2L12.9,23.5z
	 M17.4,23.6l-0.1-0.1h-0.1L17,23.7v-0.3l-0.1-0.1h0.2c0-0.1,0-0.1,0-0.2v0.2h0.3l-0.1,0.1v0.1L17.4,23.6z M14.1,21.7L14,21.8v0.3
	L13.8,22l-0.1,0.1v-0.2l-0.1-0.1h0.2v-0.2v0.2c0,0.1,0,0,0,0h0.2L14.1,21.7z M18.1,21.5L18,21.6v0.1c0,0.1,0,0.1,0,0.2l-0.1-0.1
	h-0.1l-0.1,0.1c0-0.1,0-0.1,0-0.2v-0.1l-0.1-0.1h0.2v-0.2c0,0.1,0,0.1,0,0.2h0.2L18.1,21.5z M11.8,23.9v-0.2c0-0.1,0,0,0,0l-0.1-0.1
	h0.2v-0.2v0.2c0,0,0,0,0,0H12l-0.1,0.1c-0.1,0.1,0,0,0,0.2V24L11.8,23.9L11.8,23.9z M15.7,23.7v-0.3c-0.1,0-0.1-0.1-0.1-0.1h0.2
	c0-0.1,0-0.1,0-0.2v0.2h0.2l-0.2,0.1L15.7,23.7l0.3-0.1L15.7,23.7z M17.6,25h0.1v-0.2V25c0,0.1,0,0,0,0h0.2c0,0-0.1,0.1-0.1,0.1
	c0,0,0,0,0,0.1c0,0.1,0,0.1,0,0.2l-0.1-0.1h-0.1l-0.1,0.1c0-0.1,0-0.1,0-0.2v-0.1L17.6,25L17.6,25z M16.9,25.1l-0.1,0.1v0.1
	c0,0.1,0,0.1,0,0.2l-0.1-0.1h-0.1l-0.1,0.1v-0.2c-0.1,0-0.1-0.1-0.1-0.1h0.2c0-0.1,0-0.1,0-0.2c0,0.1,0,0.1,0,0.2h0.1L16.9,25.1z
	 M14.3,25.2l-0.1,0.1v0.1c0,0.1,0,0.1,0,0.2l-0.1,0h-0.1l-0.1,0.1v-0.3l-0.2-0.1h0.2c0-0.1,0-0.1,0-0.2c0,0.1,0,0.1,0,0.2
	c0,0,0,0,0.1,0L14.3,25.2z M12.6,25.1c0,0.1,0,0.1,0,0.2h0.2l-0.1,0.1c0,0.1,0,0.1,0,0.2l0.1,0c0,0.1-0.1,0.1-0.1,0.1v-0.2
	c0-0.1,0,0,0,0l-0.2-0.1h0.2C12.6,25.4,12.6,25.1,12.6,25.1z M14.9,21.7h0.2c0-0.1,0-0.1,0-0.2c0,0.1,0,0.1,0,0.2h0.2l-0.1,0.1v0.1
	c0,0.1,0,0.1,0,0.2l-0.2-0.1l-0.1,0.1v-0.3l-0.1-0.1L14.9,21.7z M16.5,21.3c0,0.1,0,0.1,0,0.2h0.2l-0.1,0.1v0.2l-0.1-0.1l-0.1,0.1
	c0-0.1,0-0.1,0-0.2v-0.1l-0.1-0.1h0.2C16.3,21.5,16.5,21.4,16.5,21.3z M12.8,22.2l-0.1-0.1h-0.1l-0.1,0.1V22c0,0,0,0,0,0l-0.1-0.1
	h0.2c0-0.1,0-0.1,0-0.2v0.2h0.2L12.5,22v0.1C12.6,22.1,12.7,22.1,12.8,22.2z M14.3,23.5h0.2v-0.2v0.1c0,0.1,0.1,0.1,0.1,0.1
	c0,0,0,0,0,0c0,0,0,0,0.1,0l-0.1,0.1c0,0.1,0,0.1,0,0.2l-0.2-0.1l-0.1,0.1v-0.2L14.3,23.5z M18.8,23.2l-0.1,0.1v0.3l-0.1-0.1
	l-0.1,0.1c0-0.1,0-0.1,0-0.2c0,0,0-0.1,0-0.1c-0.1,0-0.1-0.1-0.1-0.1h0.2c0-0.1,0-0.1,0-0.2v0.2h0.2H18.8z"/>
</svg>
