<svg width="1080" height="1080" viewBox="0 0 1080 1080" fill="none" xmlns="http://www.w3.org/2000/svg">
<path d="M674.005 672.324H312.458V144H674.005C798.143 144 898.658 244.633 898.658 368.653V447.553C898.658 571.691 798.143 672.324 674.005 672.324Z" fill="#ACD905"/>
<path d="M767.197 936.546H312.458V672.324C312.458 526.453 430.69 408.221 576.561 408.221H767.197C913.068 408.221 1031.3 526.453 1031.3 672.324C1031.3 818.195 913.068 936.546 767.197 936.546Z" fill="#AEAFAA"/>
<path d="M898.658 443.301V447.671C898.658 571.809 798.143 672.324 673.887 672.324H312.458C312.458 599.448 342.104 533.422 389.822 485.586C437.658 437.75 503.684 408.221 576.679 408.221H767.197C815.151 408.221 860.035 420.978 898.658 443.301Z" fill="#5D6E3C"/>
<path d="M313.166 805.439C459.613 805.439 578.332 686.72 578.332 540.273C578.332 393.826 459.613 275.107 313.166 275.107C166.719 275.107 48 393.826 48 540.273C48 686.72 166.719 805.439 313.166 805.439Z" fill="black"/>
<path d="M450.887 392.04L351.789 536.848L455.139 688.388H378.956L312.458 586.81L245.605 688.388H171.547L274.897 537.674L175.799 392.04H251.983L313.757 488.185L376.83 392.04H450.887Z" fill="#ACD905"/>
</svg>
